<svg id="Layer_1" data-name="Layer 1" xmlns="http://www.w3.org/2000/svg" width="16" height="16" viewBox="0 0 16 16"><title>loadingicon</title><path d="M6.07,12.15A4.58,4.58,0,0,1,3.56,6.91L4.69,8.76l.72-.45L3.79,5.66a.42.42,0,0,0-.58-.14L.55,7.15,1,7.88,2.71,6.82a5.42,5.42,0,0,0,7.67,6L10,12.11A4.56,4.56,0,0,1,6.07,12.15Z"/><path d="M15,8.12,13.29,9.18a5.42,5.42,0,0,0-7.67-6L6,3.89a4.58,4.58,0,0,1,6.45,5.2L11.31,7.24l-.72.45,1.63,2.65a.43.43,0,0,0,.26.19h.1a.42.42,0,0,0,.22-.06l2.65-1.63Z"/></svg>